<svg width="24" height="24" viewBox="0 0 24 24" fill="none" xmlns="http://www.w3.org/2000/svg">
<path d="M5.63601 5.63601C9.15101 2.12101 14.849 2.12101 18.364 5.63601C21.879 9.15101 21.879 14.849 18.364 18.364C14.849 21.879 9.15101 21.879 5.63601 18.364C2.12101 14.849 2.12101 9.15101 5.63601 5.63601V5.63601Z" stroke="#323232" stroke-width="1.2" stroke-linecap="round" stroke-linejoin="round"/>
<path d="M12.8839 11.1161C13.372 11.6043 13.372 12.3957 12.8839 12.8839C12.3957 13.372 11.6043 13.372 11.1161 12.8839C10.628 12.3957 10.628 11.6043 11.1161 11.1161C11.6043 10.6279 12.3957 10.6279 12.8839 11.1161Z" stroke="#323232" stroke-width="1.2" stroke-linecap="round" stroke-linejoin="round"/>
<path d="M7.81102 15.645L8.38902 9.295C8.43302 8.814 8.81402 8.433 9.29402 8.39L15.644 7.813C15.955 7.785 16.215 8.045 16.187 8.356L15.61 14.706C15.566 15.187 15.185 15.568 14.705 15.611L8.35402 16.188C8.04402 16.216 7.78302 15.956 7.81102 15.645V15.645Z" stroke="#323232" stroke-width="1.2" stroke-linecap="round" stroke-linejoin="round"/>
</svg>
